<svg width="25" height="24" viewBox="0 0 25 24" fill="none" xmlns="http://www.w3.org/2000/svg">
<g filter="url(#filter0_b_897_1941)">
<rect x="0.5" width="24" height="24" rx="4" fill="white" fill-opacity="0.12"/>
<rect x="0.75" y="0.25" width="23.5" height="23.5" rx="3.75" stroke="url(#paint0_linear_897_1941)" stroke-opacity="0.4" stroke-width="0.5"/>
<path d="M18.3242 16.9752C18.3799 17.031 18.4241 17.0971 18.4543 17.17C18.4845 17.2428 18.5 17.3209 18.5 17.3997C18.5 17.4785 18.4845 17.5566 18.4543 17.6294C18.4241 17.7023 18.3799 17.7684 18.3242 17.8242C18.2684 17.8799 18.2023 17.9241 18.1294 17.9543C18.0566 17.9845 17.9785 18 17.8997 18C17.8209 18 17.7428 17.9845 17.67 17.9543C17.5971 17.9241 17.531 17.8799 17.4752 17.8242L12.5 12.8482L7.52478 17.8242C7.4122 17.9368 7.25951 18 7.1003 18C6.94109 18 6.7884 17.9368 6.67582 17.8242C6.56325 17.7116 6.5 17.5589 6.5 17.3997C6.5 17.2405 6.56325 17.0878 6.67582 16.9752L11.6518 12L6.67582 7.02478C6.56325 6.9122 6.5 6.75951 6.5 6.6003C6.5 6.44109 6.56325 6.2884 6.67582 6.17582C6.7884 6.06325 6.94109 6 7.1003 6C7.25951 6 7.4122 6.06325 7.52478 6.17582L12.5 11.1518L17.4752 6.17582C17.5878 6.06325 17.7405 6 17.8997 6C18.0589 6 18.2116 6.06325 18.3242 6.17582C18.4368 6.2884 18.5 6.44109 18.5 6.6003C18.5 6.75951 18.4368 6.9122 18.3242 7.02478L13.3482 12L18.3242 16.9752Z" fill="white"/>
</g>
<defs>
<filter id="filter0_b_897_1941" x="-7.5" y="-8" width="40" height="40" filterUnits="userSpaceOnUse" color-interpolation-filters="sRGB">
<feFlood flood-opacity="0" result="BackgroundImageFix"/>
<feGaussianBlur in="BackgroundImageFix" stdDeviation="4"/>
<feComposite in2="SourceAlpha" operator="in" result="effect1_backgroundBlur_897_1941"/>
<feBlend mode="normal" in="SourceGraphic" in2="effect1_backgroundBlur_897_1941" result="shape"/>
</filter>
<linearGradient id="paint0_linear_897_1941" x1="2.33333" y1="6.5" x2="23.1667" y2="19.8333" gradientUnits="userSpaceOnUse">
<stop stop-color="white"/>
<stop offset="1" stop-color="white" stop-opacity="0"/>
</linearGradient>
</defs>
</svg>
