<svg width="13" height="12" viewBox="0 0 13 12" fill="none" xmlns="http://www.w3.org/2000/svg">
<path d="M12.3242 10.9752C12.3799 11.031 12.4241 11.0971 12.4543 11.17C12.4845 11.2428 12.5 11.3209 12.5 11.3997C12.5 11.4785 12.4845 11.5566 12.4543 11.6294C12.4241 11.7023 12.3799 11.7684 12.3242 11.8242C12.2684 11.8799 12.2023 11.9241 12.1294 11.9543C12.0566 11.9845 11.9785 12 11.8997 12C11.8209 12 11.7428 11.9845 11.67 11.9543C11.5971 11.9241 11.531 11.8799 11.4752 11.8242L6.5 6.8482L1.52478 11.8242C1.4122 11.9368 1.25951 12 1.1003 12C0.941091 12 0.788402 11.9368 0.675824 11.8242C0.563246 11.7116 0.5 11.5589 0.5 11.3997C0.5 11.2405 0.563246 11.0878 0.675824 10.9752L5.6518 6L0.675824 1.02478C0.563246 0.912198 0.5 0.75951 0.5 0.6003C0.5 0.441091 0.563246 0.288402 0.675824 0.175824C0.788402 0.0632457 0.941091 0 1.1003 0C1.25951 0 1.4122 0.0632457 1.52478 0.175824L6.5 5.1518L11.4752 0.175824C11.5878 0.0632457 11.7405 -3.1384e-09 11.8997 0C12.0589 3.1384e-09 12.2116 0.0632457 12.3242 0.175824C12.4368 0.288402 12.5 0.441091 12.5 0.6003C12.5 0.75951 12.4368 0.912198 12.3242 1.02478L7.3482 6L12.3242 10.9752Z" fill="white"/>
</svg>
