<svg width="564" height="708" viewBox="0 0 564 708" fill="none" xmlns="http://www.w3.org/2000/svg">
<g clip-path="url(#clip0_897_60)">
<path d="M256.328 646.263L268.911 213.792L354.708 378.683L256.328 646.263Z" fill="#9FBECF" fill-opacity="0.12"/>
<path d="M354.163 378.717L256.917 643.212L269.355 215.728L354.163 378.717Z" stroke="url(#paint0_linear_897_60)" stroke-opacity="0.3"/>
<path d="M311.811 357.194L292.698 259.505L268.912 213.792L265.797 343.362L311.811 357.194Z" fill="#9FBECF" fill-opacity="0.1"/>
<path d="M269.366 215.746L292.222 259.672L311.161 356.477L266.306 342.992L269.366 215.746Z" stroke="url(#paint1_linear_897_60)" stroke-opacity="0.3"/>
<path d="M239.805 191.053L245.87 358.106L256.332 646.264L268.915 213.793L239.805 191.053Z" fill="#9FBECF" fill-opacity="0.12"/>
<path d="M246.37 358.087L240.343 192.108L268.408 214.032L256.277 630.966L246.37 358.087Z" stroke="url(#paint2_linear_897_60)" stroke-opacity="0.3"/>
<path d="M165.872 351.543L135.227 388.103L227.776 627.659L205.753 415.136L165.872 351.543Z" fill="#9FBECF" fill-opacity="0.12"/>
<path d="M226.893 623.985L135.799 388.199L165.814 352.391L205.268 415.303L226.893 623.985Z" stroke="url(#paint3_linear_897_60)" stroke-opacity="0.3"/>
<path d="M354.717 378.683L256.336 646.263L297.076 625.423L318.691 549.745L400.225 521.039L354.717 378.683Z" fill="#9FBECF" fill-opacity="0.12"/>
<path d="M318.525 549.273L318.281 549.359L318.21 549.607L296.655 625.076L257.246 645.236L354.684 380.222L399.601 520.729L318.525 549.273Z" stroke="url(#paint4_linear_897_60)" stroke-opacity="0.8"/>
<path d="M318.688 549.745L303.023 604.591L368.502 560.443L370.585 531.474L318.688 549.745Z" fill="#9FBECF" fill-opacity="0.12"/>
<path d="M370.032 532.199L368.021 560.164L303.881 603.41L319.098 550.131L370.032 532.199Z" stroke="url(#paint5_linear_897_60)" stroke-opacity="0.9"/>
<path d="M235.15 632.463L256.331 646.263L268.915 661.228L256.331 686.595L227.773 627.658L235.15 632.463Z" fill="#9FBECF" fill-opacity="0.12"/>
<path d="M234.877 632.882L255.996 646.641L268.321 661.299L256.337 685.46L229.008 629.059L234.877 632.882L234.877 632.882Z" stroke="url(#paint6_linear_897_60)" stroke-opacity="0.8"/>
<path d="M269.36 661.45L269.505 661.157L269.294 660.906L257.115 646.422L291.865 628.645L280.411 665.258L272.626 677.462L257.463 685.434L269.36 661.45Z" fill="#9FBECF" fill-opacity="0.12" stroke="url(#paint7_linear_897_60)"/>
<path d="M303.024 604.59L297.074 625.423L292.703 627.659L283.484 657.128L341.182 578.863L303.024 604.59Z" fill="#9FBECF" fill-opacity="0.12"/>
<path d="M297.302 625.868L297.495 625.769L297.555 625.56L303.454 604.903L339.063 580.895L284.852 654.429L293.118 628.008L297.302 625.868Z" stroke="url(#paint8_linear_897_60)" stroke-opacity="0.9"/>
<path d="M222.482 615.336L100.323 358.024L134.808 388.398L222.482 615.336Z" fill="#9FBECF" fill-opacity="0.1" stroke="url(#paint9_linear_897_60)"/>
<path d="M98.8281 356.041L135.23 388.104L165.875 351.544L132.414 345.674L98.8281 356.041Z" fill="#9FBECF" fill-opacity="0.12"/>
<path d="M164.935 351.886L135.176 387.39L99.8282 356.256L132.446 346.188L164.935 351.886Z" stroke="url(#paint10_linear_897_60)" stroke-opacity="0.3"/>
<path d="M132.406 345.674L165.868 351.543L175.383 153.696L156.155 154.238L132.406 345.674Z" fill="#9FBECF" fill-opacity="0.12"/>
<path d="M174.858 154.211L165.395 350.953L132.961 345.264L156.598 154.725L174.858 154.211Z" stroke="url(#paint11_linear_897_60)" stroke-opacity="0.3"/>
<path d="M297.071 127.864L268.914 213.792L354.711 378.683L297.071 127.864Z" fill="#9FBECF" fill-opacity="0.12"/>
<path d="M353.347 374.977L269.455 213.748L296.986 129.728L353.347 374.977Z" stroke="url(#paint12_linear_897_60)" stroke-opacity="0.3"/>
<path d="M297.071 127.864L268.914 213.792L317.465 220.243L297.071 127.864Z" fill="#9FBECF" fill-opacity="0.12"/>
<path d="M316.823 219.653L269.577 213.376L296.977 129.757L316.823 219.653Z" stroke="url(#paint13_linear_897_60)" stroke-opacity="0.3"/>
<path d="M428.349 331.916L428.34 331.947L428.335 331.979L400.047 518.851L355.209 378.59L346.976 241.321L464.892 204.923L428.349 331.916Z" fill="#9FBECF" fill-opacity="0.13" stroke="url(#paint14_linear_897_60)"/>
<path d="M438.855 299.017L466.09 204.371L488.604 165.88L512.804 198.533L438.855 299.017Z" fill="#9FBECF" fill-opacity="0.13" stroke="url(#paint15_linear_897_60)"/>
<path d="M297.07 127.864L346.451 240.959L465.626 204.173L297.07 127.864Z" fill="#9FBECF" fill-opacity="0.12"/>
<path d="M346.73 240.35L298.049 128.856L464.217 204.085L346.73 240.35Z" stroke="url(#paint16_linear_897_60)" stroke-opacity="0.3"/>
<path d="M136.76 310.614L42.6641 195.099L70.1599 164.975L156.159 154.238L136.76 310.614Z" fill="#9FBECF" fill-opacity="0.1"/>
<path d="M70.4049 165.449L155.584 154.813L136.408 309.39L43.3241 195.117L70.4049 165.449Z" stroke="url(#paint17_linear_897_60)" stroke-opacity="0.8"/>
<path d="M100.898 266.585L98.8281 356.041L132.414 345.674L136.763 310.614L100.898 266.585Z" fill="#9FBECF" fill-opacity="0.1"/>
<path d="M131.957 345.292L99.3441 355.359L101.367 267.952L136.241 310.765L131.957 345.292Z" stroke="url(#paint18_linear_897_60)" stroke-opacity="0.8"/>
<path d="M265.805 343.362L245.875 358.105L264.28 373.28L323.847 360.811L265.805 343.362Z" fill="#9FBECF" fill-opacity="0.12"/>
<path d="M321.822 360.724L264.413 372.742L246.687 358.127L265.901 343.913L321.822 360.724Z" stroke="url(#paint19_linear_897_60)" stroke-opacity="0.3"/>
<path d="M265.805 343.362L245.875 358.105L311.819 357.195L265.805 343.362Z" fill="#9FBECF" fill-opacity="0.12"/>
<path d="M308.568 356.739L247.421 357.584L265.901 343.913L308.568 356.739Z" stroke="url(#paint20_linear_897_60)" stroke-opacity="0.3"/>
<path d="M256.328 646.263L264.271 373.281L323.838 360.811L268.911 491.755L256.328 646.263Z" fill="#9FBECF" fill-opacity="0.03"/>
<path d="M264.759 373.689L323.009 361.495L268.45 491.562L268.419 491.635L268.413 491.715L257.385 627.123L264.759 373.689Z" stroke="url(#paint21_linear_897_60)" stroke-opacity="0.3"/>
<path d="M268.911 491.755L256.328 646.263L274.513 524.901L323.838 360.811L268.911 491.755Z" fill="#9FBECF" fill-opacity="0.12"/>
<path d="M274.034 524.757L274.024 524.791L274.018 524.827L258.029 631.537L269.403 491.875L320.625 369.765L274.034 524.757Z" stroke="url(#paint22_linear_897_60)" stroke-opacity="0.3"/>
<path d="M264.287 373.277L256.337 646.251L227.774 627.658L205.74 415.135L165.883 351.523L175.386 153.725L239.804 191.049L245.886 358.13L264.287 373.277Z" fill="#9FBECF" fill-opacity="0.12"/>
<path d="M206.237 415.084L206.225 414.968L206.163 414.87L166.39 351.39L175.846 154.569L239.315 191.344L245.386 358.148L245.394 358.373L245.568 358.516L263.78 373.507L255.863 645.346L228.246 627.369L206.237 415.084Z" stroke="url(#paint23_linear_897_60)" stroke-opacity="0.3"/>
<path d="M239.804 635.49L227.774 627.658L205.74 415.135L165.883 351.523L175.386 153.725L211.11 266.585L197.09 330.476L195.121 375.858L229.243 439.351L239.804 635.49Z" fill="#9FBECF" fill-opacity="0.07"/>
<path d="M206.237 415.084L206.225 414.968L206.163 414.87L166.39 351.39L175.752 156.537L210.593 266.609L196.601 330.369L196.592 330.411L196.59 330.454L194.621 375.836L194.615 375.973L194.68 376.094L228.749 439.489L239.252 634.533L228.246 627.37L206.237 415.084Z" stroke="url(#paint24_linear_897_60)" stroke-opacity="0.3"/>
<path d="M346.451 240.959L297.07 127.864L354.711 378.683L346.451 240.959Z" fill="#9FBECF" fill-opacity="0.17"/>
<path d="M353.852 372.713L298.76 132.983L345.957 241.078L353.852 372.713Z" stroke="url(#paint25_linear_897_60)" stroke-opacity="0.3"/>
<path d="M239.805 191.052L268.915 213.792L297.072 127.864L239.805 191.052Z" fill="#9FBECF" fill-opacity="0.12"/>
<path d="M295.866 129.94L268.662 212.96L240.536 190.989L295.866 129.94Z" stroke="url(#paint26_linear_897_60)" stroke-opacity="0.3"/>
</g>
<path d="M125.23 210.284L120.001 207.605L102.077 210.284H125.23Z" fill="#9FBECF" fill-opacity="0.06"/>
<path d="M108.805 209.784L119.916 208.123L123.157 209.784H108.805Z" stroke="url(#paint27_linear_897_60)" stroke-opacity="0.3"/>
<path d="M96.5552 210.284L120.253 207.672L140.693 161.634L64.6399 203.152L6.00004 210.284H96.5552Z" fill="#9FBECF" fill-opacity="0.06"/>
<path d="M64.7003 203.648L64.7954 203.637L64.8795 203.591L139.637 162.78L119.912 207.206L96.5277 209.784H14.2518L64.7003 203.648Z" stroke="url(#paint28_linear_897_60)" stroke-opacity="0.6"/>
<path d="M515.102 210.285L445.808 197.055L408.69 183.043L359.248 210.285H515.102Z" fill="#9FBECF" fill-opacity="0.06"/>
<path d="M445.631 197.523L445.672 197.538L445.714 197.546L509.817 209.785H361.191L408.729 183.593L445.631 197.523Z" stroke="url(#paint29_linear_897_60)" stroke-opacity="0.7"/>
<path d="M158.015 210.284L189.234 122.632L154.344 127.964L120.006 207.605L125.235 210.284H158.015Z" fill="#9FBECF" fill-opacity="0.06"/>
<path d="M154.693 128.417L188.483 123.253L157.663 209.784H125.355L120.65 207.374L154.693 128.417Z" stroke="url(#paint30_linear_897_60)" stroke-opacity="0.7"/>
<path d="M199.21 210.284L288.542 165.467L219.65 163.822L189.232 122.632L158.013 210.284H199.21Z" fill="#9FBECF" fill-opacity="0.06"/>
<path d="M219.248 164.119L219.394 164.316L219.638 164.322L286.526 165.919L199.091 209.784H158.722L189.388 123.685L219.248 164.119Z" stroke="url(#paint31_linear_897_60)" stroke-opacity="0.3"/>
<path d="M219.653 163.822L288.545 165.467L265.228 177.165L219.653 163.822Z" fill="#9FBECF" fill-opacity="0.09"/>
<path d="M265.179 176.63L223.451 164.413L286.529 165.919L265.179 176.63Z" stroke="url(#paint32_linear_897_60)" stroke-opacity="0.3"/>
<path d="M288.539 210.285V165.467L199.207 210.285H288.539Z" fill="#9FBECF" fill-opacity="0.06"/>
<path d="M201.318 209.785L288.039 166.277V209.785H201.318Z" stroke="url(#paint33_linear_897_60)" stroke-opacity="0.3"/>
<path d="M359.247 210.285L408.69 183.043L354.266 148.364L288.541 165.467L335.249 210.285H359.247Z" fill="#9FBECF" fill-opacity="0.06"/>
<path d="M354.181 148.903L407.711 183.012L359.119 209.785H335.45L289.533 165.725L354.181 148.903Z" stroke="url(#paint34_linear_897_60)" stroke-opacity="0.6"/>
<path d="M335.249 210.285L288.541 165.467V210.285H335.249Z" fill="#9FBECF" fill-opacity="0.06"/>
<path d="M289.041 209.785V166.64L334.006 209.785H289.041Z" stroke="url(#paint35_linear_897_60)" stroke-opacity="0.3"/>
<path d="M154.344 127.964L189.235 122.632L211.547 101.121L154.344 127.964Z" fill="#9FBECF" fill-opacity="0.12"/>
<path d="M189.002 122.162L157.688 126.948L209.027 102.856L189.002 122.162Z" stroke="url(#paint36_linear_897_60)" stroke-opacity="0.7"/>
<path d="M211.543 101.121L189.231 122.632L219.65 163.822L240.34 129.798L211.543 101.121Z" fill="#9FBECF" fill-opacity="0.1"/>
<path d="M219.61 162.926L189.894 122.688L211.538 101.821L239.709 129.875L219.61 162.926Z" stroke="url(#paint37_linear_897_60)" stroke-opacity="0.6"/>
<path d="M189.231 122.632L219.65 163.822L236.492 136.126L221.451 155.298L189.231 122.632Z" fill="#9FBECF" fill-opacity="0.1"/>
<path d="M231.699 143.046L219.61 162.926L193.798 127.974L221.095 155.649L221.494 156.054L221.845 155.607L231.699 143.046Z" stroke="url(#paint38_linear_897_60)" stroke-opacity="0.6"/>
<path d="M219.653 163.822L288.545 165.467L256.603 138.849L240.344 129.798L219.653 163.822Z" fill="#9FBECF" fill-opacity="0.1"/>
<path d="M256.318 139.263L287.123 164.933L220.53 163.343L240.521 130.469L256.318 139.263Z" stroke="url(#paint39_linear_897_60)" stroke-opacity="0.6"/>
<path d="M254.152 127.661L240.341 129.798L256.6 138.849L288.542 165.467L354.267 148.364L254.152 127.661Z" fill="#9FBECF" fill-opacity="0.1"/>
<path d="M256.92 138.465L256.884 138.435L256.843 138.412L241.856 130.07L254.139 128.169L352.068 148.42L288.665 164.918L256.92 138.465Z" stroke="url(#paint40_linear_897_60)" stroke-opacity="0.6"/>
<path d="M211.542 101.121L240.339 129.798L237.826 100.487L211.542 101.121Z" fill="#9FBECF" fill-opacity="0.1"/>
<path d="M237.368 100.998L239.725 128.48L212.725 101.592L237.368 100.998Z" stroke="url(#paint41_linear_897_60)" stroke-opacity="0.6"/>
<path d="M211.542 101.121L240.339 129.798L239.502 120.032L211.542 101.121Z" fill="#9FBECF" fill-opacity="0.06"/>
<path d="M239.024 120.312L239.725 128.48L215.641 104.497L239.024 120.312Z" stroke="url(#paint42_linear_897_60)" stroke-opacity="0.3"/>
<path d="M240.343 129.798L254.155 127.66L251.895 110.8L237.83 100.487L240.343 129.798Z" fill="#9FBECF" fill-opacity="0.1"/>
<path d="M253.594 127.241L240.796 129.222L238.422 101.541L251.427 111.077L253.594 127.241Z" stroke="url(#paint43_linear_897_60)" stroke-opacity="0.6"/>
<path d="M251.895 110.801L254.154 127.661L354.27 148.364L251.895 110.801Z" fill="#9FBECF" fill-opacity="0.1"/>
<path d="M254.603 127.243L252.5 111.556L347.755 146.507L254.603 127.243Z" stroke="url(#paint44_linear_897_60)" stroke-opacity="0.6"/>
<path d="M356.672 121.357L339.679 136.414L292.871 127.66L354.266 148.364L401.461 178.437L356.672 121.357Z" fill="#9FBECF" fill-opacity="0.1"/>
<path d="M339.587 136.906L339.827 136.951L340.01 136.789L356.606 122.083L399.26 176.441L354.534 147.942L354.483 147.909L354.426 147.89L299.771 129.459L339.587 136.906Z" stroke="url(#paint45_linear_897_60)" stroke-opacity="0.7"/>
<path d="M316.029 131.993L339.678 136.415L311.958 84.6899L273.732 86.6157L316.029 131.993Z" fill="#9FBECF" fill-opacity="0.1"/>
<path d="M274.831 87.061L311.667 85.2052L338.745 135.732L316.283 131.531L274.831 87.061Z" stroke="url(#paint46_linear_897_60)" stroke-opacity="0.6"/>
<path d="M251.895 110.801L292.875 127.661L316.034 131.992L273.737 86.6152L251.895 110.801Z" fill="#9FBECF" fill-opacity="0.1"/>
<path d="M314.632 131.221L293.018 127.179L252.742 110.608L273.743 87.3548L314.632 131.221Z" stroke="url(#paint47_linear_897_60)" stroke-opacity="0.6"/>
<path d="M237.83 100.487L273.737 86.6152L251.895 110.801L237.83 100.487Z" fill="#9FBECF" fill-opacity="0.1"/>
<path d="M251.826 110.13L238.863 100.624L271.959 87.8383L251.826 110.13Z" stroke="url(#paint48_linear_897_60)" stroke-opacity="0.6"/>
<path d="M233.634 72.7017L211.542 101.121L237.826 100.487L273.734 86.6147L233.634 72.7017Z" fill="#9FBECF" fill-opacity="0.1"/>
<path d="M272.281 86.6399L237.727 99.989L212.584 100.595L233.809 73.2915L272.281 86.6399Z" stroke="url(#paint49_linear_897_60)" stroke-opacity="0.7"/>
<path d="M255.021 49.5628L233.636 72.7021L273.735 86.6151L288.187 65.0494L271.89 23L255.021 49.5628Z" fill="#9FBECF" fill-opacity="0.1"/>
<path d="M255.388 49.9022L255.419 49.869L255.443 49.8309L271.781 24.1036L287.627 64.9873L273.535 86.0163L234.522 72.4802L255.388 49.9022Z" stroke="url(#paint50_linear_897_60)" stroke-opacity="0.7"/>
<path d="M339.677 136.415L356.67 121.358L314.391 74.3789L311.957 84.6896L339.677 136.415Z" fill="#9FBECF" fill-opacity="0.1"/>
<path d="M314.659 75.4232L355.961 121.318L339.819 135.621L312.487 84.6203L314.659 75.4232Z" stroke="url(#paint51_linear_897_60)" stroke-opacity="0.7"/>
<path d="M295.784 54.874L288.185 65.0492L273.732 86.6149L311.958 84.6892L299.439 66.7471L305.798 65.4547L295.784 54.874Z" fill="#9FBECF" fill-opacity="0.1"/>
<path d="M311.031 84.2352L274.703 86.0654L288.593 65.3382L295.829 55.6491L304.816 65.1442L299.339 66.2571L298.593 66.4088L299.029 67.0332L311.031 84.2352Z" stroke="url(#paint52_linear_897_60)" stroke-opacity="0.6"/>
<path d="M295.787 54.874L288.188 65.0492L299.442 66.7471L305.801 65.4547L295.787 54.874Z" fill="#9FBECF" fill-opacity="0.09"/>
<path d="M299.429 66.2395L289.088 64.6794L295.832 55.6491L304.819 65.1442L299.429 66.2395Z" stroke="url(#paint53_linear_897_60)" stroke-opacity="0.6"/>
<path d="M305.801 65.4551L299.441 66.7475L311.96 84.6895L314.394 74.3789L305.801 65.4551Z" fill="#9FBECF" fill-opacity="0.1"/>
<path d="M311.73 83.4865L300.287 67.0858L305.631 65.9998L313.845 74.5293L311.73 83.4865Z" stroke="url(#paint54_linear_897_60)" stroke-opacity="0.6"/>
<path d="M287.227 44.8832L271.891 23L288.188 65.0494L295.787 54.8742L287.227 44.8832Z" fill="#9FBECF" fill-opacity="0.1"/>
<path d="M286.818 45.1702L286.832 45.1901L286.848 45.2085L295.147 54.8956L288.328 64.0266L273.846 26.6609L286.818 45.1702Z" stroke="url(#paint55_linear_897_60)" stroke-opacity="0.6"/>
<g filter="url(#filter0_f_897_60)">
<path d="M62 205L21 209H55L101 266.5L99 355L256 684.5L272.5 676L280 664.5L283.5 654.5L337.5 580L367.5 559L369.5 530L399.5 519.5L428 331L437 299.5L504 209H526L444 197.5L406.5 183.5L398.5 177L356 123L313.5 75.5L286 45.5L271 24.5L254 51L233.5 73.5L211.5 101L154 129L138.5 163L62 205Z" stroke="#17A1DD" stroke-width="4"/>
</g>
<g filter="url(#filter1_f_897_60)">
<path d="M63 204.5L21 209H55L101 266.5L99 355L256 684.5L272.5 676L280 664.5L283.5 654.5L337.5 580L367.5 559L369.5 530L399.5 519.5L428 331L437 299.5L504 209L515.5 210.5L444.5 197L407 183L399 176.5L356.5 122.5L314 75L286.5 45L271.5 24L254.5 50.5L234 73L212 100.5L154.5 128.5L139 162.5L63 204.5Z" stroke="white"/>
</g>
<defs>
<filter id="filter0_f_897_60" x="0.805664" y="0.93457" width="545.472" height="706.288" filterUnits="userSpaceOnUse" color-interpolation-filters="sRGB">
<feFlood flood-opacity="0" result="BackgroundImageFix"/>
<feBlend mode="normal" in="SourceGraphic" in2="BackgroundImageFix" result="shape"/>
<feGaussianBlur stdDeviation="10" result="effect1_foregroundBlur_897_60"/>
</filter>
<filter id="filter1_f_897_60" x="14.9468" y="17.1089" width="506.646" height="674.072" filterUnits="userSpaceOnUse" color-interpolation-filters="sRGB">
<feFlood flood-opacity="0" result="BackgroundImageFix"/>
<feBlend mode="normal" in="SourceGraphic" in2="BackgroundImageFix" result="shape"/>
<feGaussianBlur stdDeviation="3" result="effect1_foregroundBlur_897_60"/>
</filter>
<linearGradient id="paint0_linear_897_60" x1="305.518" y1="213.792" x2="305.518" y2="646.263" gradientUnits="userSpaceOnUse">
<stop stop-color="#4FB0DA"/>
<stop offset="1" stop-color="#5BB7DF" stop-opacity="0"/>
</linearGradient>
<linearGradient id="paint1_linear_897_60" x1="288.804" y1="213.792" x2="288.804" y2="357.194" gradientUnits="userSpaceOnUse">
<stop stop-color="#4FB0DA"/>
<stop offset="1" stop-color="#5BB7DF" stop-opacity="0"/>
</linearGradient>
<linearGradient id="paint2_linear_897_60" x1="254.36" y1="191.053" x2="254.36" y2="646.264" gradientUnits="userSpaceOnUse">
<stop stop-color="#4FB0DA"/>
<stop offset="1" stop-color="#5BB7DF" stop-opacity="0"/>
</linearGradient>
<linearGradient id="paint3_linear_897_60" x1="181.501" y1="351.543" x2="181.501" y2="627.659" gradientUnits="userSpaceOnUse">
<stop stop-color="#4FB0DA"/>
<stop offset="1" stop-color="#5BB7DF" stop-opacity="0"/>
</linearGradient>
<linearGradient id="paint4_linear_897_60" x1="400" y1="525.769" x2="306.887" y2="484.944" gradientUnits="userSpaceOnUse">
<stop stop-color="#1AABEA"/>
<stop offset="1" stop-color="#5BB7DF" stop-opacity="0"/>
</linearGradient>
<linearGradient id="paint5_linear_897_60" x1="336.417" y1="533.856" x2="392.34" y2="550.716" gradientUnits="userSpaceOnUse">
<stop stop-color="#287292" stop-opacity="0.04"/>
<stop offset="0.572119" stop-color="#17AEEF"/>
</linearGradient>
<linearGradient id="paint6_linear_897_60" x1="250.5" y1="637.059" x2="213.529" y2="655.751" gradientUnits="userSpaceOnUse">
<stop stop-color="#5BB7DF" stop-opacity="0"/>
<stop offset="0.62186" stop-color="#19A5E2"/>
</linearGradient>
<linearGradient id="paint7_linear_897_60" x1="245.208" y1="620.4" x2="258.598" y2="689.672" gradientUnits="userSpaceOnUse">
<stop stop-color="#5BB7DF" stop-opacity="0"/>
<stop offset="1" stop-color="#00B2FF"/>
</linearGradient>
<linearGradient id="paint8_linear_897_60" x1="312.002" y1="581.414" x2="352.893" y2="627.027" gradientUnits="userSpaceOnUse">
<stop stop-color="#287292" stop-opacity="0.04"/>
<stop offset="0.572119" stop-color="#00AFFB"/>
</linearGradient>
<linearGradient id="paint9_linear_897_60" x1="170.004" y1="443.307" x2="103.138" y2="476.641" gradientUnits="userSpaceOnUse">
<stop stop-color="#287292" stop-opacity="0.04"/>
<stop offset="0.572119" stop-color="#20A4DE"/>
</linearGradient>
<linearGradient id="paint10_linear_897_60" x1="132.352" y1="345.674" x2="132.352" y2="388.104" gradientUnits="userSpaceOnUse">
<stop stop-color="#4FB0DA"/>
<stop offset="1" stop-color="#5BB7DF" stop-opacity="0"/>
</linearGradient>
<linearGradient id="paint11_linear_897_60" x1="153.895" y1="153.696" x2="153.895" y2="351.543" gradientUnits="userSpaceOnUse">
<stop stop-color="#4FB0DA"/>
<stop offset="1" stop-color="#5BB7DF" stop-opacity="0"/>
</linearGradient>
<linearGradient id="paint12_linear_897_60" x1="311.813" y1="127.864" x2="311.813" y2="378.683" gradientUnits="userSpaceOnUse">
<stop stop-color="#4FB0DA"/>
<stop offset="1" stop-color="#5BB7DF" stop-opacity="0"/>
</linearGradient>
<linearGradient id="paint13_linear_897_60" x1="293.19" y1="127.864" x2="293.19" y2="220.243" gradientUnits="userSpaceOnUse">
<stop stop-color="#4FB0DA"/>
<stop offset="1" stop-color="#5BB7DF" stop-opacity="0"/>
</linearGradient>
<linearGradient id="paint14_linear_897_60" x1="405.357" y1="214.499" x2="548.541" y2="295.983" gradientUnits="userSpaceOnUse">
<stop stop-color="#287292" stop-opacity="0.04"/>
<stop offset="0.572119" stop-color="#1DAEEC"/>
</linearGradient>
<linearGradient id="paint15_linear_897_60" x1="475.079" y1="169.425" x2="545.791" y2="228.822" gradientUnits="userSpaceOnUse">
<stop stop-color="#287292" stop-opacity="0.04"/>
<stop offset="0.572119" stop-color="#1DAEEC"/>
</linearGradient>
<linearGradient id="paint16_linear_897_60" x1="381.348" y1="127.864" x2="381.348" y2="240.959" gradientUnits="userSpaceOnUse">
<stop stop-color="#4FB0DA"/>
<stop offset="1" stop-color="#5BB7DF" stop-opacity="0"/>
</linearGradient>
<linearGradient id="paint17_linear_897_60" x1="129.666" y1="286.314" x2="-55.4234" y2="297.984" gradientUnits="userSpaceOnUse">
<stop stop-color="#287292" stop-opacity="0.04"/>
<stop offset="0.241347" stop-color="#1AB0F1"/>
</linearGradient>
<linearGradient id="paint18_linear_897_60" x1="127.908" y1="342.14" x2="65.8814" y2="344.425" gradientUnits="userSpaceOnUse">
<stop stop-color="#287292" stop-opacity="0.04"/>
<stop offset="0.572119" stop-color="#1AB0F1"/>
</linearGradient>
<linearGradient id="paint19_linear_897_60" x1="284.861" y1="343.362" x2="284.861" y2="373.28" gradientUnits="userSpaceOnUse">
<stop stop-color="#4FB0DA"/>
<stop offset="1" stop-color="#5BB7DF" stop-opacity="0"/>
</linearGradient>
<linearGradient id="paint20_linear_897_60" x1="278.847" y1="343.362" x2="278.847" y2="358.105" gradientUnits="userSpaceOnUse">
<stop stop-color="#4FB0DA"/>
<stop offset="1" stop-color="#5BB7DF" stop-opacity="0"/>
</linearGradient>
<linearGradient id="paint21_linear_897_60" x1="290.083" y1="360.811" x2="290.083" y2="646.263" gradientUnits="userSpaceOnUse">
<stop stop-color="#4FB0DA"/>
<stop offset="1" stop-color="#5BB7DF" stop-opacity="0"/>
</linearGradient>
<linearGradient id="paint22_linear_897_60" x1="290.083" y1="360.811" x2="290.083" y2="646.263" gradientUnits="userSpaceOnUse">
<stop stop-color="#4FB0DA"/>
<stop offset="1" stop-color="#5BB7DF" stop-opacity="0"/>
</linearGradient>
<linearGradient id="paint23_linear_897_60" x1="215.085" y1="153.725" x2="215.085" y2="646.251" gradientUnits="userSpaceOnUse">
<stop stop-color="#4FB0DA"/>
<stop offset="1" stop-color="#5BB7DF" stop-opacity="0"/>
</linearGradient>
<linearGradient id="paint24_linear_897_60" x1="202.843" y1="153.725" x2="202.843" y2="635.49" gradientUnits="userSpaceOnUse">
<stop stop-color="#4FB0DA"/>
<stop offset="1" stop-color="#5BB7DF" stop-opacity="0"/>
</linearGradient>
<linearGradient id="paint25_linear_897_60" x1="325.891" y1="127.864" x2="325.891" y2="378.683" gradientUnits="userSpaceOnUse">
<stop stop-color="#4FB0DA"/>
<stop offset="1" stop-color="#5BB7DF" stop-opacity="0"/>
</linearGradient>
<linearGradient id="paint26_linear_897_60" x1="268.438" y1="127.864" x2="268.438" y2="213.792" gradientUnits="userSpaceOnUse">
<stop stop-color="#4FB0DA"/>
<stop offset="1" stop-color="#5BB7DF" stop-opacity="0"/>
</linearGradient>
<linearGradient id="paint27_linear_897_60" x1="113.653" y1="207.605" x2="113.653" y2="210.284" gradientUnits="userSpaceOnUse">
<stop stop-color="#4FB0DA"/>
<stop offset="1" stop-color="#5BB7DF" stop-opacity="0"/>
</linearGradient>
<linearGradient id="paint28_linear_897_60" x1="109.251" y1="202.724" x2="96.1845" y2="158.36" gradientUnits="userSpaceOnUse">
<stop stop-color="#287292" stop-opacity="0.04"/>
<stop offset="0.572119" stop-color="#5BB7DF"/>
</linearGradient>
<linearGradient id="paint29_linear_897_60" x1="392.888" y1="187.83" x2="416.782" y2="145.145" gradientUnits="userSpaceOnUse">
<stop stop-color="#287292" stop-opacity="0.04"/>
<stop offset="0.508906" stop-color="#AAE5FF"/>
</linearGradient>
<linearGradient id="paint30_linear_897_60" x1="154.179" y1="163.488" x2="131.715" y2="149.156" gradientUnits="userSpaceOnUse">
<stop offset="0.345746" stop-color="#287292" stop-opacity="0.04"/>
<stop offset="0.508906" stop-color="#AAE5FF"/>
</linearGradient>
<linearGradient id="paint31_linear_897_60" x1="223.277" y1="122.632" x2="223.277" y2="210.284" gradientUnits="userSpaceOnUse">
<stop stop-color="#4FB0DA"/>
<stop offset="1" stop-color="#5BB7DF" stop-opacity="0"/>
</linearGradient>
<linearGradient id="paint32_linear_897_60" x1="254.099" y1="163.822" x2="254.099" y2="177.165" gradientUnits="userSpaceOnUse">
<stop stop-color="#4FB0DA"/>
<stop offset="1" stop-color="#5BB7DF" stop-opacity="0"/>
</linearGradient>
<linearGradient id="paint33_linear_897_60" x1="243.873" y1="165.467" x2="243.873" y2="210.285" gradientUnits="userSpaceOnUse">
<stop stop-color="#4FB0DA"/>
<stop offset="1" stop-color="#5BB7DF" stop-opacity="0"/>
</linearGradient>
<linearGradient id="paint34_linear_897_60" x1="377.64" y1="166.596" x2="397.618" y2="153.782" gradientUnits="userSpaceOnUse">
<stop stop-color="#287292" stop-opacity="0.04"/>
<stop offset="0.572119" stop-color="#5BB7DF"/>
</linearGradient>
<linearGradient id="paint35_linear_897_60" x1="311.895" y1="165.467" x2="311.895" y2="210.285" gradientUnits="userSpaceOnUse">
<stop stop-color="#4FB0DA"/>
<stop offset="1" stop-color="#5BB7DF" stop-opacity="0"/>
</linearGradient>
<linearGradient id="paint36_linear_897_60" x1="211.911" y1="134.494" x2="176.116" y2="119.223" gradientUnits="userSpaceOnUse">
<stop offset="0.345746" stop-color="#287292" stop-opacity="0.04"/>
<stop offset="0.508906" stop-color="#AAE5FF"/>
</linearGradient>
<linearGradient id="paint37_linear_897_60" x1="162.023" y1="105.013" x2="218.536" y2="69.2638" gradientUnits="userSpaceOnUse">
<stop stop-color="#287292" stop-opacity="0.04"/>
<stop offset="0.572119" stop-color="#5BB7DF"/>
</linearGradient>
<linearGradient id="paint38_linear_897_60" x1="164.072" y1="125.189" x2="204.882" y2="88.849" gradientUnits="userSpaceOnUse">
<stop stop-color="#287292" stop-opacity="0.04"/>
<stop offset="0.572119" stop-color="#5BB7DF"/>
</linearGradient>
<linearGradient id="paint39_linear_897_60" x1="182.978" y1="132.012" x2="215.829" y2="82.7718" gradientUnits="userSpaceOnUse">
<stop stop-color="#287292" stop-opacity="0.04"/>
<stop offset="0.572119" stop-color="#5BB7DF"/>
</linearGradient>
<linearGradient id="paint40_linear_897_60" x1="179.691" y1="130.007" x2="206.956" y2="66.2448" gradientUnits="userSpaceOnUse">
<stop stop-color="#287292" stop-opacity="0.04"/>
<stop offset="0.572119" stop-color="#5BB7DF"/>
</linearGradient>
<linearGradient id="paint41_linear_897_60" x1="196.212" y1="102.306" x2="224.406" y2="80.8099" gradientUnits="userSpaceOnUse">
<stop stop-color="#287292" stop-opacity="0.04"/>
<stop offset="0.572119" stop-color="#5BB7DF"/>
</linearGradient>
<linearGradient id="paint42_linear_897_60" x1="225.941" y1="101.121" x2="225.941" y2="129.798" gradientUnits="userSpaceOnUse">
<stop stop-color="#4FB0DA"/>
<stop offset="1" stop-color="#5BB7DF" stop-opacity="0"/>
</linearGradient>
<linearGradient id="paint43_linear_897_60" x1="229.14" y1="102.306" x2="250.435" y2="93.1018" gradientUnits="userSpaceOnUse">
<stop stop-color="#287292" stop-opacity="0.04"/>
<stop offset="0.572119" stop-color="#5BB7DF"/>
</linearGradient>
<linearGradient id="paint44_linear_897_60" x1="197.394" y1="113.132" x2="226.352" y2="51.8859" gradientUnits="userSpaceOnUse">
<stop stop-color="#287292" stop-opacity="0.04"/>
<stop offset="0.572119" stop-color="#5BB7DF"/>
</linearGradient>
<linearGradient id="paint45_linear_897_60" x1="316.31" y1="131.387" x2="367.887" y2="100.749" gradientUnits="userSpaceOnUse">
<stop stop-color="#287292" stop-opacity="0.04"/>
<stop offset="0.508906" stop-color="#AAE5FF"/>
</linearGradient>
<linearGradient id="paint46_linear_897_60" x1="238.626" y1="87.9003" x2="290.218" y2="36.8549" gradientUnits="userSpaceOnUse">
<stop stop-color="#287292" stop-opacity="0.04"/>
<stop offset="0.572119" stop-color="#5BB7DF"/>
</linearGradient>
<linearGradient id="paint47_linear_897_60" x1="217.749" y1="89.4315" x2="262.818" y2="39.9929" gradientUnits="userSpaceOnUse">
<stop stop-color="#287292" stop-opacity="0.04"/>
<stop offset="0.572119" stop-color="#5BB7DF"/>
</linearGradient>
<linearGradient id="paint48_linear_897_60" x1="218.715" y1="88.1163" x2="242.599" y2="60.5971" gradientUnits="userSpaceOnUse">
<stop stop-color="#287292" stop-opacity="0.04"/>
<stop offset="0.572119" stop-color="#5BB7DF"/>
</linearGradient>
<linearGradient id="paint49_linear_897_60" x1="235.485" y1="107.224" x2="211.39" y2="80.0708" gradientUnits="userSpaceOnUse">
<stop stop-color="#287292" stop-opacity="0.04"/>
<stop offset="0.508906" stop-color="#AAE5FF"/>
</linearGradient>
<linearGradient id="paint50_linear_897_60" x1="254.637" y1="100.277" x2="219.401" y2="70.835" gradientUnits="userSpaceOnUse">
<stop stop-color="#287292" stop-opacity="0.04"/>
<stop offset="0.508906" stop-color="#AAE5FF"/>
</linearGradient>
<linearGradient id="paint51_linear_897_60" x1="288.154" y1="78.2292" x2="340.881" y2="48.7361" gradientUnits="userSpaceOnUse">
<stop stop-color="#287292" stop-opacity="0.04"/>
<stop offset="0.508906" stop-color="#AAE5FF"/>
</linearGradient>
<linearGradient id="paint52_linear_897_60" x1="253.383" y1="56.844" x2="284.971" y2="27.3213" gradientUnits="userSpaceOnUse">
<stop stop-color="#287292" stop-opacity="0.04"/>
<stop offset="0.572119" stop-color="#5BB7DF"/>
</linearGradient>
<linearGradient id="paint53_linear_897_60" x1="278.811" y1="55.6109" x2="290.537" y2="42.1103" gradientUnits="userSpaceOnUse">
<stop stop-color="#287292" stop-opacity="0.04"/>
<stop offset="0.572119" stop-color="#5BB7DF"/>
</linearGradient>
<linearGradient id="paint54_linear_897_60" x1="291.48" y1="66.6489" x2="308.453" y2="56.4089" gradientUnits="userSpaceOnUse">
<stop stop-color="#287292" stop-opacity="0.04"/>
<stop offset="0.572119" stop-color="#5BB7DF"/>
</linearGradient>
<linearGradient id="paint55_linear_897_60" x1="259.169" y1="25.6098" x2="290.141" y2="11.9497" gradientUnits="userSpaceOnUse">
<stop stop-color="#287292" stop-opacity="0.04"/>
<stop offset="0.572119" stop-color="#5BB7DF"/>
</linearGradient>
<clipPath id="clip0_897_60">
<rect width="538" height="476" fill="white" transform="translate(2 210)"/>
</clipPath>
</defs>
</svg>
