<svg width="26" height="26" viewBox="0 0 26 26" fill="none" xmlns="http://www.w3.org/2000/svg">
<g filter="url(#filter0_b_825_3328)">
<rect width="26" height="26" rx="4" fill="white" fill-opacity="0.2"/>
<rect x="0.5" y="0.5" width="25" height="25" rx="3.5" stroke="url(#paint0_linear_825_3328)"/>
</g>
<path d="M8.5 19V11C8.5 10.7348 8.39464 10.4804 8.20711 10.2929C8.01957 10.1054 7.76522 10 7.5 10C7.23478 10 6.98043 10.1054 6.79289 10.2929C6.60536 10.4804 6.5 10.7348 6.5 11V19C6.5 19.2652 6.60536 19.5196 6.79289 19.7071C6.98043 19.8946 7.23478 20 7.5 20C7.76522 20 8.01957 19.8946 8.20711 19.7071C8.39464 19.5196 8.5 19.2652 8.5 19Z" fill="white"/>
<path d="M19.5 19V14.5C19.4997 13.6825 19.2768 12.8806 18.8551 12.1803C18.4335 11.48 17.829 10.9078 17.1067 10.5251C16.3844 10.1424 15.5714 9.96368 14.7552 10.0081C13.9389 10.0526 13.1502 10.3186 12.4738 10.7775C12.418 10.539 12.2767 10.3292 12.0765 10.188C11.8764 10.0468 11.6314 9.98392 11.388 10.0114C11.1446 10.0388 10.9197 10.1546 10.756 10.3369C10.5923 10.5191 10.5012 10.7551 10.5 11V19C10.5 19.2652 10.6054 19.5196 10.7929 19.7071C10.9804 19.8946 11.2348 20 11.5 20C11.7652 20 12.0196 19.8946 12.2071 19.7071C12.3946 19.5196 12.5 19.2652 12.5 19V14.5C12.5 13.837 12.7634 13.2011 13.2322 12.7322C13.7011 12.2634 14.337 12 15 12C15.663 12 16.2989 12.2634 16.7678 12.7322C17.2366 13.2011 17.5 13.837 17.5 14.5V19C17.5 19.2652 17.6054 19.5196 17.7929 19.7071C17.9804 19.8946 18.2348 20 18.5 20C18.7652 20 19.0196 19.8946 19.2071 19.7071C19.3946 19.5196 19.5 19.2652 19.5 19Z" fill="white"/>
<path d="M8.74721 8.33335C8.91203 8.08668 9 7.79667 9 7.5C9 7.10218 8.84197 6.72064 8.56066 6.43934C8.27936 6.15804 7.89783 6 7.5 6C7.20333 6 6.91332 6.08797 6.66665 6.2528C6.41997 6.41762 6.22771 6.65189 6.11418 6.92597C6.00065 7.20006 5.97094 7.50166 6.02882 7.79264C6.0867 8.08361 6.22956 8.35088 6.43934 8.56066C6.64912 8.77044 6.91639 8.9133 7.20736 8.97118C7.49834 9.02906 7.79994 8.99935 8.07403 8.88582C8.34811 8.77229 8.58238 8.58003 8.74721 8.33335Z" fill="white"/>
<defs>
<filter id="filter0_b_825_3328" x="-8" y="-8" width="42" height="42" filterUnits="userSpaceOnUse" color-interpolation-filters="sRGB">
<feFlood flood-opacity="0" result="BackgroundImageFix"/>
<feGaussianBlur in="BackgroundImageFix" stdDeviation="4"/>
<feComposite in2="SourceAlpha" operator="in" result="effect1_backgroundBlur_825_3328"/>
<feBlend mode="normal" in="SourceGraphic" in2="effect1_backgroundBlur_825_3328" result="shape"/>
</filter>
<linearGradient id="paint0_linear_825_3328" x1="1.98611" y1="7.04167" x2="24.5556" y2="21.4861" gradientUnits="userSpaceOnUse">
<stop stop-color="white"/>
<stop offset="1" stop-color="white" stop-opacity="0"/>
</linearGradient>
</defs>
</svg>
