<svg width="18" height="18" viewBox="0 0 18 18" fill="none" xmlns="http://www.w3.org/2000/svg">
<g id="vuesax/linear/cup">
<g id="cup">
<path id="Vector" d="M9.11255 12.375V13.95" stroke="#17B5F9" stroke-linecap="round" stroke-linejoin="round"/>
<path id="Vector_2" d="M5.36255 16.5H12.8625V15.75C12.8625 14.925 12.1875 14.25 11.3625 14.25H6.86255C6.03755 14.25 5.36255 14.925 5.36255 15.75V16.5Z" fill="url(#paint0_linear_832_8)" fill-opacity="0.2" stroke="#17B5F9" stroke-linecap="round" stroke-linejoin="round"/>
<path id="Vector_3" d="M4.61255 16.5H13.6125" stroke="#17B5F9" stroke-linecap="round" stroke-linejoin="round"/>
<path id="Vector_4" d="M9 12C6.0975 12 3.75 9.6525 3.75 6.75V4.5C3.75 2.8425 5.0925 1.5 6.75 1.5H11.25C12.9075 1.5 14.25 2.8425 14.25 4.5V6.75C14.25 9.6525 11.9025 12 9 12Z" fill="url(#paint1_linear_832_8)" fill-opacity="0.2" stroke="#17B5F9" stroke-linecap="round" stroke-linejoin="round"/>
<path id="Vector_5" d="M4.10253 8.73769C3.54003 8.55769 3.04503 8.22769 2.65503 7.83769C1.98003 7.08769 1.53003 6.1877 1.53003 5.1377C1.53003 4.0877 2.35503 3.2627 3.40503 3.2627H3.89253C3.74253 3.6077 3.66753 3.9902 3.66753 4.3877V6.6377C3.66753 7.3877 3.82503 8.09269 4.10253 8.73769Z" stroke="#17B5F9" stroke-linecap="round" stroke-linejoin="round"/>
<path id="Vector_6" d="M13.8975 8.73769C14.46 8.55769 14.955 8.22769 15.345 7.83769C16.02 7.08769 16.47 6.1877 16.47 5.1377C16.47 4.0877 15.645 3.2627 14.595 3.2627H14.1075C14.2575 3.6077 14.3325 3.9902 14.3325 4.3877V6.6377C14.3325 7.3877 14.175 8.09269 13.8975 8.73769Z" stroke="#17B5F9" stroke-linecap="round" stroke-linejoin="round"/>
</g>
</g>
<defs>
<linearGradient id="paint0_linear_832_8" x1="9.11255" y1="14.25" x2="9.18545" y2="16.842" gradientUnits="userSpaceOnUse">
<stop stop-color="#17B5F9"/>
<stop offset="1" stop-color="#17B5F9" stop-opacity="0.53"/>
</linearGradient>
<linearGradient id="paint1_linear_832_8" x1="9" y1="1.5" x2="10.125" y2="13.5" gradientUnits="userSpaceOnUse">
<stop stop-color="#17B5F9"/>
<stop offset="1" stop-color="#17B5F9" stop-opacity="0.53"/>
</linearGradient>
</defs>
</svg>
