<svg width="18" height="18" viewBox="0 0 18 18" fill="none" xmlns="http://www.w3.org/2000/svg">
<g id="vuesax/linear/shield-tick">
<g id="vuesax/linear/shield-tick_2">
<g id="shield-tick">
<path id="Vector" d="M7.8675 1.67242L4.12499 3.08242C3.2625 3.40492 2.5575 4.42492 2.5575 5.33992V10.9124C2.5575 11.7974 3.14249 12.9599 3.855 13.4924L7.08 15.8999C8.1375 16.6949 9.8775 16.6949 10.935 15.8999L14.16 13.4924C14.8725 12.9599 15.4575 11.7974 15.4575 10.9124V5.33992C15.4575 4.41742 14.7525 3.39742 13.89 3.07492L10.1475 1.67242C9.50999 1.43992 8.49 1.43992 7.8675 1.67242Z" fill="url(#paint0_linear_825_3350)" fill-opacity="0.2" stroke="#17B5F9" stroke-linecap="round" stroke-linejoin="round"/>
<path id="Vector_2" d="M6.78748 8.90227L7.99498 10.1098L11.22 6.88477" stroke="#17B5F9" stroke-linecap="round" stroke-linejoin="round"/>
</g>
</g>
</g>
<defs>
<linearGradient id="paint0_linear_825_3350" x1="9.0075" y1="1.49805" x2="10.8701" y2="18.5864" gradientUnits="userSpaceOnUse">
<stop stop-color="#17B5F9"/>
<stop offset="1" stop-color="#17B5F9" stop-opacity="0.53"/>
</linearGradient>
</defs>
</svg>
