<svg width="18" height="18" viewBox="0 0 18 18" fill="none" xmlns="http://www.w3.org/2000/svg">
<g id="vuesax/linear/lamp-charge">
<g id="lamp-charge">
<path id="Vector" d="M9.00005 5.91748L8.19755 7.31248C8.01755 7.61998 8.16755 7.87498 8.52005 7.87498H9.47255C9.83255 7.87498 9.97505 8.12998 9.79505 8.43748L9.00005 9.83248" stroke="#17B5F9" stroke-linecap="round" stroke-linejoin="round"/>
<path id="Vector_2" d="M6.22502 13.5301V12.6601C4.50002 11.6176 3.08252 9.58513 3.08252 7.42513C3.08252 3.71263 6.49502 0.802632 10.35 1.64263C12.045 2.01763 13.53 3.14263 14.3025 4.69513C15.87 7.84513 14.22 11.1901 11.7975 12.6526V13.5226C11.7975 13.7401 11.88 14.2426 11.0775 14.2426H6.94502C6.12002 14.2501 6.22502 13.9276 6.22502 13.5301Z" fill="url(#paint0_linear_832_2)" fill-opacity="0.2" stroke="#17B5F9" stroke-linecap="round" stroke-linejoin="round"/>
<path id="Vector_3" d="M6.375 16.4999C8.0925 16.0124 9.9075 16.0124 11.625 16.4999" stroke="#17B5F9" stroke-linecap="round" stroke-linejoin="round"/>
</g>
</g>
<defs>
<linearGradient id="paint0_linear_832_2" x1="8.9996" y1="1.49707" x2="10.4683" y2="16.0433" gradientUnits="userSpaceOnUse">
<stop stop-color="#17B5F9"/>
<stop offset="1" stop-color="#17B5F9" stop-opacity="0.53"/>
</linearGradient>
</defs>
</svg>
